# Blender v2.82 (sub 7) OBJ File: 'Iris.blend'
# www.blender.org
mtllib I1.mtl
o Plane
v -0.000000 1.820076 1.239041
v 0.000000 -0.654876 2.499393
v -0.000000 1.820275 -2.500595
v 0.000000 0.655119 -1.906973
v 0.000000 0.653834 -2.499964
v 0.000000 -1.819507 -1.238459
v 0.000000 -1.819507 2.500040
v 0.000000 -0.655352 1.907929
v 0.000000 -0.655352 1.907929
v 0.150000 1.820275 -2.500595
v 0.150000 1.820076 1.239041
v 0.150000 -0.654876 2.499393
v 0.150000 0.655119 -1.906973
v 0.150000 0.653834 -2.499964
v 0.150000 -1.819507 -1.238459
v 0.150000 -1.819507 2.500040
v 0.150000 -0.655352 1.907929
v 0.150000 -0.655352 1.907929
v 0.000000 0.655119 -1.906973
v -0.000000 1.820275 -2.500595
v 0.150000 0.655119 -1.906973
v 0.150000 1.820275 -2.500595
vt 0.000000 0.000000
vt 0.000000 1.000000
vt 1.000000 1.000000
vt 0.000000 0.000000
vt 0.000000 0.000000
vt 0.000000 0.000000
vt 0.000000 0.000000
vt 0.000000 0.000000
vt 1.000000 0.000000
vt 0.000000 0.000000
vt 1.000000 0.000000
vt 0.000000 0.000000
vt 0.000000 0.000000
vt 0.000000 0.000000
vt 0.000000 0.000000
vt 0.000000 0.000000
vt 1.000000 1.000000
vt 0.000000 1.000000
vt 1.000000 1.000000
vt 0.000000 1.000000
vt 1.000000 1.000000
vt 0.000000 1.000000
vn -1.0000 -0.0000 -0.0000
vn 1.0000 0.0000 0.0000
vn 0.0000 -1.0000 0.0008
vn 0.0000 -1.0000 0.0000
vn 0.0000 0.0000 1.0000
vn 0.0000 1.0000 0.0001
vn 0.0000 0.4533 0.8913
vn 0.0000 1.0000 -0.0022
vn 0.0000 0.4538 0.8911
vn 0.0000 -0.4544 -0.8908
vn 0.0000 -0.4540 -0.8910
usemtl None
s off
f 1/1/1 3/2/1 4/3/1 5/4/1 6/5/1 7/6/1 8/7/1 9/8/1 2/9/1
f 11/10/2 12/11/2 18/12/2 17/13/2 16/14/2 15/15/2 14/16/2 13/17/2 10/18/2
f 2/9/3 9/8/3 18/12/3 12/11/3
f 7/6/4 6/5/4 15/15/4 16/14/4
f 10/18/5 13/17/5 21/19/5 22/20/5
f 3/2/6 1/1/6 11/10/6 10/18/6
f 8/7/7 7/6/7 16/14/7 17/13/7
f 5/4/8 4/3/8 13/17/8 14/16/8
f 1/1/9 2/9/9 12/11/9 11/10/9
f 9/8/5 8/7/5 17/13/5 18/12/5
f 6/5/10 5/4/10 14/16/10 15/15/10
f 19/21/11 20/22/11 22/20/11 21/19/11
f 3/2/5 10/18/5 22/20/5 20/22/5
f 4/3/5 3/2/5 20/22/5 19/21/5
f 13/17/5 4/3/5 19/21/5 21/19/5
