# Blender v2.82 (sub 7) OBJ File: 'Iris.blend'
# www.blender.org
mtllib I3.mtl
o Plane.003
v -0.013455 1.831340 1.249981
v -0.013455 -0.667553 2.518868
v -0.013455 1.831340 -2.522251
v -0.013455 0.666596 -1.925764
v -0.013455 -0.667553 1.928076
v -0.013455 -1.831300 2.520625
v -0.013455 -1.831300 -1.247549
v -0.000000 1.831340 -2.522251
v -0.013455 0.666596 -2.519690
v -0.000000 1.831340 1.249981
v 0.000000 -0.667553 2.518868
v 0.000000 0.666596 -1.925764
v 0.000000 -0.667553 1.928076
v 0.000000 -1.831300 2.520625
v 0.000000 -1.831300 -1.247549
v 0.000000 0.666596 -2.519690
v -0.000000 1.831340 -2.522251
v -0.000000 1.831340 1.249981
v 0.000000 -0.667553 2.518868
v 0.000000 0.666596 -1.925764
v 0.000000 -0.667553 1.928076
v 0.000000 -1.831300 2.520625
v 0.000000 -1.831300 -1.247549
v 0.000000 0.666596 -2.519690
v 0.146809 1.831340 -2.522251
v 0.146809 1.831340 1.249981
v 0.146809 -0.667553 2.518868
v 0.146809 0.666596 -1.925764
v 0.146809 -0.667553 1.928076
v 0.146809 -1.831300 2.520625
v 0.146809 -1.831300 -1.247549
v 0.146809 0.666596 -2.519690
vt 0.000000 0.000000
vt 0.000000 1.000000
vt 1.000000 1.000000
vt 1.000000 0.000000
vt 0.000000 0.000000
vt 0.000000 0.000000
vt 0.000000 0.000000
vt 0.000000 0.000000
vt 0.000000 0.000000
vt 0.000000 0.000000
vt 0.000000 0.000000
vt 0.000000 0.000000
vt 0.000000 1.000000
vt 0.000000 0.000000
vt 0.000000 0.000000
vt 0.000000 1.000000
vt 1.000000 1.000000
vt 0.000000 0.000000
vt 0.000000 0.000000
vt 1.000000 0.000000
vt 1.000000 1.000000
vt 0.000000 1.000000
vt 1.000000 1.000000
vt 0.000000 0.000000
vt 0.000000 0.000000
vt 0.000000 0.000000
vt 0.000000 0.000000
vt 1.000000 0.000000
vt 0.000000 0.000000
vt 1.000000 0.000000
vt 0.000000 0.000000
vt 0.000000 0.000000
vn -1.0000 -0.0000 -0.0000
vn 0.0000 0.0000 1.0000
vn 0.0000 1.0000 0.0000
vn 0.0000 0.4537 0.8911
vn 0.0000 -0.4558 -0.8901
vn 0.0000 0.4528 0.8916
vn 0.0000 -0.4538 -0.8911
vn 0.0000 -1.0000 -0.0000
vn 1.0000 0.0000 0.0000
usemtl None
s off
f 1/1/1 3/2/1 4/3/1 2/4/1
f 4/3/1 9/5/1 7/6/1 6/7/1 5/8/1 2/4/1
f 15/9/2 16/10/2 24/11/2 23/12/2
f 8/13/2 10/14/2 18/15/2 17/16/2
f 9/5/3 4/3/3 12/17/3 16/10/3
f 5/8/4 6/7/4 14/18/4 13/19/4
f 4/3/5 3/2/5 8/13/5 12/17/5
f 1/1/6 2/4/6 11/20/6 10/14/6
f 7/6/7 9/5/7 16/10/7 15/9/7
f 6/7/8 7/6/8 15/9/8 14/18/8
f 2/4/8 5/8/8 13/19/8 11/20/8
f 3/2/3 1/1/3 10/14/3 8/13/3
f 20/21/5 17/16/5 25/22/5 28/23/5
f 21/24/4 22/25/4 30/26/4 29/27/4
f 13/19/2 14/18/2 22/25/2 21/24/2
f 12/17/2 8/13/2 17/16/2 20/21/2
f 10/14/2 11/20/2 19/28/2 18/15/2
f 16/10/2 12/17/2 20/21/2 24/11/2
f 14/18/2 15/9/2 23/12/2 22/25/2
f 11/20/2 13/19/2 21/24/2 19/28/2
f 26/29/9 27/30/9 28/23/9 25/22/9
f 28/23/9 27/30/9 29/27/9 30/26/9 31/31/9 32/32/9
f 18/15/6 19/28/6 27/30/6 26/29/6
f 24/11/3 20/21/3 28/23/3 32/32/3
f 22/25/8 23/12/8 31/31/8 30/26/8
f 19/28/8 21/24/8 29/27/8 27/30/8
f 17/16/3 18/15/3 26/29/3 25/22/3
f 23/12/7 24/11/7 32/32/7 31/31/7
