<svg id="Capa_1" data-name="Capa 1" xmlns="http://www.w3.org/2000/svg" viewBox="0 0 199.8 16.4"><title>Logo_CONTACTLESS_200px ancho</title><polygon points="160.49 11.25 154.51 8.84 177.34 8.84 171.36 11.25 171.97 12.73 180.56 9.1 180.56 6.91 171.97 3.27 171.36 4.76 177.34 7.17 154.51 7.17 160.49 4.76 159.88 3.27 151.29 6.91 151.29 9.1 159.88 12.73 160.49 11.25"/><path d="M2.15,2.09A6.41,6.41,0,0,1,6.92.18c2.58,0,4.46.85,5.66,2.56a5.61,5.61,0,0,1,1.06,2.9H10.4A4.51,4.51,0,0,0,9.61,4,3.22,3.22,0,0,0,7,2.94,3.17,3.17,0,0,0,4.31,4.37a6.92,6.92,0,0,0-1,4,6.08,6.08,0,0,0,1.06,3.91,3.31,3.31,0,0,0,2.68,1.3,3.06,3.06,0,0,0,2.54-1.12,4.9,4.9,0,0,0,.8-1.8h3.22a7,7,0,0,1-2.13,4.13A6.22,6.22,0,0,1,7.09,16.4a6.59,6.59,0,0,1-5.2-2.14A8.67,8.67,0,0,1,0,8.35,8.6,8.6,0,0,1,2.15,2.09"/><path d="M28.16,14.59a6.74,6.74,0,0,1-5.08,1.81A6.75,6.75,0,0,1,18,14.59,8.33,8.33,0,0,1,15.65,8.2q0-4.26,2.35-6.39A6.75,6.75,0,0,1,23.08,0a6.74,6.74,0,0,1,5.08,1.81Q30.5,3.94,30.5,8.2a8.36,8.36,0,0,1-2.34,6.39m-2-2.35a6.37,6.37,0,0,0,1.13-4,6.36,6.36,0,0,0-1.13-4,3.72,3.72,0,0,0-3.06-1.43A3.76,3.76,0,0,0,20,4.16a6.33,6.33,0,0,0-1.15,4,6.31,6.31,0,0,0,1.15,4,3.73,3.73,0,0,0,3.07,1.42,3.71,3.71,0,0,0,3.06-1.42"/><polygon points="32.92 0.47 36.32 0.47 42.47 11.28 42.47 0.47 45.49 0.47 45.49 15.97 42.25 15.97 35.94 4.98 35.94 15.97 32.92 15.97 32.92 0.47"/><polygon points="59.79 0.47 59.79 3.22 55.15 3.22 55.15 15.97 51.89 15.97 51.89 3.22 47.23 3.22 47.23 0.47 59.79 0.47"/><path d="M64.53.47h3.66L73.67,16H70.16l-1-3.18H63.43l-1,3.18H59Zm-.22,9.65h4l-2-6.1Z"/><path d="M77.13,2.09A6.37,6.37,0,0,1,81.89.18q3.87,0,5.66,2.56a5.61,5.61,0,0,1,1.06,2.9H85.37A4.51,4.51,0,0,0,84.58,4a3.21,3.21,0,0,0-2.57-1,3.17,3.17,0,0,0-2.73,1.43,7,7,0,0,0-1,4,6.14,6.14,0,0,0,1.06,3.91A3.31,3.31,0,0,0,82,13.61a3.06,3.06,0,0,0,2.54-1.12,4.9,4.9,0,0,0,.8-1.8h3.22a7,7,0,0,1-2.13,4.13,6.22,6.22,0,0,1-4.38,1.58,6.6,6.6,0,0,1-5.21-2.14A8.67,8.67,0,0,1,75,8.35a8.56,8.56,0,0,1,2.16-6.26"/><polygon points="102.46 0.47 102.46 3.22 97.82 3.22 97.82 15.97 94.56 15.97 94.56 3.22 89.9 3.22 89.9 0.47 102.46 0.47"/><polygon points="104.35 0.47 107.59 0.47 107.59 13.19 115.33 13.19 115.33 15.97 104.35 15.97 104.35 0.47"/><polygon points="128.97 3.22 120.76 3.22 120.76 6.51 128.29 6.51 128.29 9.2 120.76 9.2 120.76 13.19 129.34 13.19 129.34 15.97 117.6 15.97 117.6 0.47 128.97 0.47 128.97 3.22"/><path d="M134.2,11.19a3.17,3.17,0,0,0,.59,1.59,3.47,3.47,0,0,0,2.76,1,5.87,5.87,0,0,0,1.9-.25,1.8,1.8,0,0,0,1.39-1.8,1.33,1.33,0,0,0-.68-1.19A7.46,7.46,0,0,0,138,9.77l-1.68-.37a10.31,10.31,0,0,1-3.4-1.19,3.78,3.78,0,0,1-1.57-3.35A4.44,4.44,0,0,1,132.9,1.4,6.51,6.51,0,0,1,137.4,0a6.89,6.89,0,0,1,4.23,1.3,4.62,4.62,0,0,1,1.84,3.77h-3.12a2.2,2.2,0,0,0-1.25-2,4.25,4.25,0,0,0-1.93-.39,3.63,3.63,0,0,0-2,.51,1.59,1.59,0,0,0-.77,1.41,1.34,1.34,0,0,0,.75,1.24,10,10,0,0,0,2.06.64l2.72.64a6.81,6.81,0,0,1,2.68,1.13A3.76,3.76,0,0,1,144,11.44,4.46,4.46,0,0,1,142.32,15a7,7,0,0,1-4.64,1.4A7.61,7.61,0,0,1,132.86,15a4.6,4.6,0,0,1-1.75-3.8Z"/><path d="M190,11.19a3.17,3.17,0,0,0,.59,1.59,3.47,3.47,0,0,0,2.76,1,5.91,5.91,0,0,0,1.9-.25,1.81,1.81,0,0,0,1.39-1.8,1.33,1.33,0,0,0-.68-1.19,7.55,7.55,0,0,0-2.16-.72l-1.67-.37a10.22,10.22,0,0,1-3.4-1.19,3.76,3.76,0,0,1-1.57-3.35,4.46,4.46,0,0,1,1.53-3.46A6.56,6.56,0,0,1,193.24,0a6.89,6.89,0,0,1,4.23,1.3,4.62,4.62,0,0,1,1.83,3.77h-3.11a2.22,2.22,0,0,0-1.25-2A4.28,4.28,0,0,0,193,2.71a3.66,3.66,0,0,0-2,.51,1.58,1.58,0,0,0-.76,1.41A1.34,1.34,0,0,0,191,5.87a10,10,0,0,0,2.06.64l2.72.64a6.88,6.88,0,0,1,2.68,1.13,3.76,3.76,0,0,1,1.39,3.16A4.46,4.46,0,0,1,198.16,15a7,7,0,0,1-4.64,1.4A7.61,7.61,0,0,1,188.7,15a4.57,4.57,0,0,1-1.75-3.8Z"/></svg>